<svg version="1.1" id="rocket" xmlns="http://www.w3.org/2000/svg" x="0px" y="0px"
     viewBox="0 0 300 300" enable-background="new 0 0 300 300">
    <g className="s-star">
        <circle fill="#2e3c42" cx="53.1" cy="77.7" r="1"/>
        <circle fill="#2e3c42" cx="192.6" cy="54.7" r="1"/>
        <circle fill="#2e3c42" cx="181.5" cy="42.7" r="1"/>
        <circle fill="#2e3c42" cx="235.1" cy="120.8" r="1"/>
        <circle fill="#2e3c42" cx="77.7" cy="237" r="1"/>
        <circle fill="#2e3c42" cx="253.1" cy="269" r="1"/>
        <circle fill="#2e3c42" cx="76.7" cy="126.8" r="1"/>
        <circle fill="#2e3c42" cx="113.9" cy="32.4" r="1"/>
        <circle fill="#2e3c42" cx="275.4" cy="20" r="1"/>
        <circle fill="#2e3c42" cx="262.1" cy="32.4" r="1"/>
        <circle fill="#2e3c42" cx="28.7" cy="21" r="1"/>
        <circle fill="#2e3c42" cx="137.4" cy="261.7" r="1"/>
    </g>
    <g className="x-star">
        <circle fill="#2e3c42" cx="30.4" cy="12" r="1.5"/>
        <circle fill="#2e3c42" cx="252.1" cy="-99.7" r="1.5"/>
        <circle fill="#2e3c42" cx="263.1" cy="49.6" r="1.5"/>
        <circle fill="#2e3c42" cx="52.1" cy="99.7" r="1.5"/>
        <circle fill="#2e3c42" cx="105.8" cy="-92.3" r="1.5"/>
        <circle fill="#2e3c42" cx="38.6" cy="-38.5" r="1.5"/>
    </g>
    <g className="tank">

        <path fill="#E85763" stroke="#333333" stroke-width="3" stroke-linecap="round" stroke-linejoin="round" stroke-miterlimit="10" d="
		M171.4,194.9V85.2c0-11.8-9.6-26.6-21.4-26.6s-21.4,14.8-21.4,26.6v109.6H171.4z"/>
        <path opacity="0.1" d="M150,58.7c-2.9,0-5.7,0.9-8.3,2.5c1-0.2,1.9-0.3,2.9-0.3c11.8,0,21.4,14.8,21.4,26.6v107.5h5.3V85.2
		C171.4,73.5,161.8,58.7,150,58.7z"/>
    </g>
    <g id="thruster">
        <g className="thruster-2">
            <g>
                <path fill="#FFFFFF" d="M181,212.8v-74c0-3.3,2.7-8.4,5-8.4s5,5.1,5,8.4v74H181z"/>
                <g>
                    <path fill="#333333" d="M186,131.9c1,0,3.5,3.8,3.5,6.9v72.5h-7.1v-72.5C182.5,135.7,185.1,131.9,186,131.9 M186,128.9
					c-3.6,0-6.5,6.3-6.5,9.9v75.5h13.1v-75.5C192.6,135.2,189.7,128.9,186,128.9L186,128.9z"/>
                </g>
            </g>
            <polygon opacity="8.000000e-02" fill="#333333" points="179.5,214.2 179.5,214.3 192.6,214.3 192.6,166.2 179.5,141.4 		"/>
            <rect x="180.5" y="212.6" fill="#333333" width="11.2" height="9.9"/>

            <line opacity="0.2" fill="#F4F4F4" stroke="#333333" stroke-width="1.8" stroke-miterlimit="10" x1="179.5" y1="144.9" x2="192.6" y2="144.9"/>

            <line opacity="0.2" fill="#F4F4F4" stroke="#333333" stroke-width="1.8" stroke-miterlimit="10" x1="179.5" y1="173.9" x2="192.6" y2="173.9"/>
        </g>
        <g className="thruster-1">
            <g>
                <path fill="#FFFFFF" d="M108.8,212.8v-74c0-3.3,2.7-8.4,5-8.4s5,5.1,5,8.4v74H108.8z"/>
                <path fill="#333333" d="M113.9,131.9c1,0,3.5,3.8,3.5,6.9v72.5h-7.1v-72.5C110.3,135.7,112.9,131.9,113.9,131.9 M113.9,128.9
				c-3.6,0-6.5,6.3-6.5,9.9v75.5h13.1v-75.5C120.4,135.2,117.5,128.9,113.9,128.9L113.9,128.9z"/>
            </g>
            <rect x="108.3" y="212.6" fill="#333333" width="11.2" height="9.9"/>

            <line opacity="0.2" fill="#F4F4F4" stroke="#333333" stroke-width="1.8" stroke-miterlimit="10" x1="107.3" y1="144.9" x2="120.4" y2="144.9"/>

            <line opacity="0.2" fill="#F4F4F4" stroke="#333333" stroke-width="1.8" stroke-miterlimit="10" x1="107.3" y1="173.9" x2="120.4" y2="173.9"/>
        </g>
    </g>
    <g id="rocket-body">
        <g>
            <path fill="#F4F4F4" d="M102.1,214.1c-0.2,0-0.4,0-0.6-0.1c-1.6-0.7-2.4-2.9-2.8-4.2c-1-3.5-1-8.7,1.9-13.1c1-1.5,3-2.8,5.7-4.6
			c7.9-5.3,22.7-15.2,29.7-42.2c0.2-0.7,0.8-1.1,1.5-1.1c0.1,0,0.1,0,0.2,0c0.7,0.1,1.3,0.7,1.3,1.5v62.4c0,0.8-0.7,1.5-1.5,1.5
			H102.1z"/>
            <path fill="#333333" d="M137.4,150.2c0,15.4,0,62.4,0,62.4s-31.6,0-35.3,0c-2.1-1-4.3-9.1-0.3-15.1
			C105.2,192.3,128,186.2,137.4,150.2 M137.4,147.2c-1.3,0-2.6,0.9-2.9,2.2c-6.9,26.4-20.8,35.8-29.1,41.3c-2.9,1.9-5,3.3-6.1,5.1
			c-3.2,4.8-3.2,10.6-2.1,14.4c0.5,1.8,1.6,4.2,3.6,5.1c0.4,0.2,0.8,0.3,1.2,0.3h35.3c1.7,0,3-1.3,3-3v-62.4c0-1.5-1.1-2.8-2.6-3
			C137.6,147.2,137.5,147.2,137.4,147.2L137.4,147.2z"/>
        </g>
        <g>
            <path fill="#CCCCCC" d="M162.6,214.1c-0.8,0-1.5-0.7-1.5-1.5v-62.4c0-0.8,0.6-1.4,1.3-1.5c0.1,0,0.1,0,0.2,0
			c0.7,0,1.3,0.5,1.5,1.1c7,27,21.8,36.9,29.7,42.2c2.7,1.8,4.7,3.2,5.7,4.6c2.9,4.4,2.9,9.7,1.9,13.1c-0.4,1.2-1.2,3.4-2.8,4.2
			c-0.2,0.1-0.4,0.1-0.6,0.1H162.6z"/>
            <g>
                <path fill="#333333" d="M162.6,150.2c9.4,36.1,32.2,42.1,35.6,47.3c4,6,1.9,14.1-0.3,15.1c-3.7,0-35.3,0-35.3,0
				S162.6,165.6,162.6,150.2 M162.6,147.2c-0.1,0-0.3,0-0.4,0c-1.5,0.2-2.6,1.5-2.6,3v62.4c0,1.7,1.3,3,3,3h35.3
				c0.4,0,0.9-0.1,1.2-0.3c2-0.9,3.1-3.3,3.6-5.1c1.1-3.8,1.1-9.5-2.1-14.4c-1.1-1.7-3.2-3.1-6.1-5.1c-8.3-5.6-22.2-14.9-29.1-41.3
				C165.2,148.1,164,147.2,162.6,147.2L162.6,147.2z"/>
            </g>
        </g>
        <g>
            <path fill="#FFFFFF" d="M143.7,229.4c-0.7,0-1.2-0.4-1.4-1.1c-2.9-9.5-6.4-23-6.4-33.7v-75.7c0-4.7,7.4-22.6,14.1-22.6
			c6.8,0,14.1,18,14.1,22.6v75.7c0,10.7-3.5,24.3-6.4,33.7c-0.2,0.6-0.8,1.1-1.4,1.1H143.7z"/>
            <path fill="#333333" d="M150,97.8c5.5,0,12.6,16.7,12.6,21.1c0,4.4,0,59,0,75.7c0,10.8-3.7,24.8-6.3,33.3h-12.5
			c-2.6-8.5-6.3-22.5-6.3-33.3c0-16.7,0-71.3,0-75.7C137.4,114.5,144.5,97.8,150,97.8 M150,94.8c-8.4,0-15.6,19.6-15.6,24.1v75.7
			c0,10.9,3.5,24.6,6.5,34.2c0.4,1.3,1.6,2.1,2.9,2.1h12.5c1.3,0,2.5-0.9,2.9-2.1c3-9.6,6.5-23.3,6.5-34.2v-75.7
			C165.6,114.3,158.4,94.8,150,94.8L150,94.8z"/>
        </g>
        <g>
            <path fill="#EBEBEB" d="M150,97.8c-1,0-2,0.5-3,1.4c5.3,1.3,11.9,16.8,11.9,21c0,4.4,0,59,0,75.7c0,10.3-3.4,23.4-5.9,32h3.4
			c2.6-8.5,6.3-22.5,6.3-33.3c0-16.7,0-71.3,0-75.7S155.5,97.8,150,97.8z"/>
        </g>
        <g>
            <path fill="#333333" stroke="#333333" stroke-linecap="round" stroke-linejoin="round" stroke-miterlimit="10" d="M148.2,117.3
			c-3.3,0.6-5.9,3.3-7,6.9c1.7-2,4.2-3.4,7-3.7V117.3z"/>
            <path fill="#333333" stroke="#333333" stroke-linecap="round" stroke-linejoin="round" stroke-miterlimit="10" d="M151.5,117.2
			v3.3c2.9,0.2,5.6,1.6,7.4,3.7C157.7,120.5,154.9,117.7,151.5,117.2z"/>
        </g>
        <path fill="#EBEBEB" d="M150,198.1v29.8h6.3c0.9-2.9,1.9-6.5,2.9-10.4l-7.7-19.4H150z"/>

        <line fill="#FFFFFF" stroke="#333333" stroke-width="3" stroke-linecap="round" stroke-linejoin="round" stroke-miterlimit="10" x1="150" y1="241.3" x2="150" y2="198.1"/>
    </g>
</svg>
